<?xml version="1.0" standalone="no"?>
<!DOCTYPE svg PUBLIC "-//W3C//DTD SVG 20010904//EN"
 "http://www.w3.org/TR/2001/REC-SVG-20010904/DTD/svg10.dtd">
<svg version="1.0" xmlns="http://www.w3.org/2000/svg"
 width="1024.000000pt" height="1024.000000pt" viewBox="0 0 1024.000000 1024.000000"
 preserveAspectRatio="xMidYMid meet">

<g transform="translate(0.000000,1024.000000) scale(0.100000,-0.100000)"
fill="#000000" stroke="none">
<path d="M3904 7186 c-34 -36 -205 -224 -380 -418 -175 -194 -393 -434 -484
-533 -352 -384 -360 -393 -360 -430 0 -9 11 -27 25 -40 l24 -25 279 0 c287 0
302 -2 302 -40 0 -10 -79 -107 -176 -216 -297 -334 -354 -394 -378 -394 -21 0
-82 57 -157 146 -110 132 -246 279 -273 295 -110 67 -238 -55 -181 -174 16
-35 22 -42 377 -473 262 -320 275 -331 363 -322 63 8 96 33 226 179 62 68 271
300 464 514 193 215 438 486 544 603 249 276 257 287 230 345 -20 44 -45 48
-308 47 -135 0 -252 0 -260 0 -9 0 -12 9 -8 28 2 15 72 223 153 464 l149 436
-18 36 c-15 32 -21 36 -54 36 -33 0 -45 -8 -99 -64z"/>
<path d="M2210 6694 c-278 -50 -514 -243 -601 -491 -47 -134 -49 -167 -49
-826 0 -369 4 -647 10 -684 31 -192 148 -390 303 -513 78 -62 198 -122 302
-152 79 -23 86 -23 635 -23 551 0 556 0 640 23 268 74 467 241 568 479 60 141
63 173 60 650 l-3 432 -135 -151 c-74 -83 -143 -162 -152 -177 -16 -23 -18
-54 -18 -241 0 -241 -11 -318 -60 -415 -59 -119 -157 -204 -294 -254 l-71 -26
-443 -3 c-527 -4 -625 3 -727 52 -139 65 -244 196 -280 347 -22 94 -22 1227 0
1312 43 165 165 291 320 332 48 12 125 15 380 16 218 1 328 5 347 12 14 7 77
68 138 137 62 69 124 137 138 153 l26 27 -480 -1 c-356 -1 -498 -5 -554 -15z"/>
<path d="M5020 5930 l0 -650 135 0 135 0 0 260 0 260 245 0 245 0 0 120 0 121
-197 -1 c-109 0 -219 -1 -246 0 l-48 0 3 153 3 152 260 2 260 2 3 115 3 116
-401 0 -400 0 0 -650z"/>
<path d="M7840 6370 c0 -89 -3 -120 -12 -121 -7 -1 -41 -1 -75 0 l-63 2 0
-106 0 -105 74 0 75 0 3 -302 c3 -288 4 -305 25 -343 26 -49 54 -76 113 -106
39 -21 59 -24 150 -24 58 0 122 4 143 8 l37 8 0 111 c0 110 0 110 -22 104 -57
-16 -109 -18 -138 -6 -56 23 -60 44 -60 310 l0 240 105 0 106 0 -3 103 -3 102
-102 -1 -103 -1 0 123 0 124 -125 0 -125 0 0 -120z"/>
<path d="M6125 6240 c-81 -27 -148 -79 -185 -142 -28 -50 -49 -132 -36 -145 3
-3 57 -8 121 -11 l115 -5 0 26 c0 64 89 115 179 103 80 -11 114 -49 127 -144
l6 -50 -43 -6 c-24 -3 -87 -7 -139 -10 -242 -11 -378 -95 -410 -252 -16 -75
-5 -142 33 -205 56 -93 151 -139 289 -139 90 0 168 30 230 88 l48 45 0 -57 0
-56 120 0 121 0 -2 308 c-1 169 -5 337 -9 373 -14 126 -86 225 -197 269 -84
33 -282 39 -368 10z m319 -586 c-1 -72 -21 -112 -77 -158 -37 -29 -44 -31
-122 -31 -95 0 -117 12 -136 75 -27 90 50 153 209 169 134 13 127 16 126 -55z"/>
<path d="M7076 6244 c-150 -48 -237 -173 -222 -317 15 -145 97 -208 321 -247
192 -34 215 -47 215 -120 0 -37 -21 -65 -67 -89 -33 -17 -123 -13 -168 8 -46
21 -63 39 -74 78 l-8 28 -114 -4 c-63 -2 -117 -5 -120 -7 -10 -6 11 -105 31
-145 27 -51 102 -114 169 -141 49 -19 74 -22 196 -22 160 0 218 15 293 79 138
118 137 350 -1 442 -55 37 -84 46 -213 68 -171 30 -218 56 -218 119 0 71 77
111 179 92 42 -8 100 -56 109 -91 7 -28 14 -29 141 -18 l77 6 -6 44 c-13 99
-91 195 -185 229 -66 24 -270 29 -335 8z"/>
<path d="M5000 4900 l0 -120 175 0 175 0 0 -520 0 -520 128 0 127 0 0 517 0
518 188 3 187 2 0 120 0 120 -490 0 -490 0 0 -120z"/>
<path d="M7620 4381 l0 -640 125 -3 125 -3 0 148 0 147 41 45 c23 25 44 45 48
45 3 0 58 -86 121 -190 l115 -190 143 0 142 0 -22 35 c-137 209 -318 499 -318
510 0 8 5 17 10 20 6 3 71 79 147 168 75 89 145 172 156 185 l20 22 -141 0
-142 0 -152 -190 c-83 -104 -155 -190 -160 -190 -4 0 -8 162 -8 360 l0 360
-125 0 -125 0 0 -639z"/>
<path d="M6130 4675 c-134 -38 -222 -131 -244 -257 l-7 -38 78 0 c43 0 94 -3
115 -6 35 -6 37 -5 56 39 26 58 60 80 131 84 102 7 161 -48 161 -149 0 -46 -1
-48 -27 -48 -86 -1 -281 -22 -327 -35 -137 -40 -226 -144 -226 -263 0 -119 62
-218 163 -263 42 -19 70 -23 147 -24 82 0 103 4 150 26 30 14 70 40 89 57 18
18 35 32 37 32 1 0 4 -20 6 -45 2 -25 6 -45 11 -45 4 0 55 0 113 0 l105 0 -3
348 -3 347 -29 63 c-35 77 -96 133 -175 163 -75 28 -242 36 -321 14z m290
-575 c0 -59 -18 -108 -51 -140 -79 -75 -232 -80 -270 -8 -7 13 -11 40 -11 62
4 87 93 132 270 135 l62 1 0 -50z"/>
<path d="M7002 4675 c-29 -8 -66 -22 -82 -30 -121 -63 -186 -211 -146 -331 37
-113 115 -162 318 -200 145 -27 183 -44 198 -90 23 -69 -44 -124 -148 -124
-81 1 -162 51 -162 102 0 9 -4 19 -9 23 -6 3 -60 2 -122 -1 l-111 -7 5 -50
c21 -175 228 -284 472 -249 206 30 310 131 310 302 0 163 -82 228 -348 275
-106 19 -156 44 -171 86 -23 68 30 119 124 119 74 0 119 -25 145 -79 l20 -42
50 5 c28 3 74 6 103 6 48 0 52 2 52 23 0 13 -7 48 -16 78 -22 72 -87 138 -169
169 -78 29 -235 37 -313 15z"/>
</g>
</svg>
